<mxfile host="Electron" modified="2025-02-13T11:41:20.188Z" agent="Mozilla/5.0 (Windows NT 10.0; Win64; x64) AppleWebKit/537.36 (KHTML, like Gecko) draw.io/23.1.5 Chrome/120.0.6099.109 Electron/28.1.0 Safari/537.36" etag="-tIkP5BskeptZpLiH0Xc" version="23.1.5" type="device">
  <diagram name="Halaman-1" id="V9ffMtMA5DEHqn6JVb_T">
    <mxGraphModel dx="829" dy="876" grid="1" gridSize="10" guides="1" tooltips="1" connect="1" arrows="1" fold="1" page="1" pageScale="1" pageWidth="827" pageHeight="1169" math="0" shadow="0">
      <root>
        <mxCell id="0" />
        <mxCell id="1" parent="0" />
        <mxCell id="EYmzBYj7U2H1WZuYqgdF-3" style="edgeStyle=orthogonalEdgeStyle;rounded=0;orthogonalLoop=1;jettySize=auto;html=1;exitX=0.5;exitY=1;exitDx=0;exitDy=0;" parent="1" source="EYmzBYj7U2H1WZuYqgdF-2" target="EYmzBYj7U2H1WZuYqgdF-4" edge="1">
          <mxGeometry relative="1" as="geometry">
            <mxPoint x="387" y="100" as="targetPoint" />
          </mxGeometry>
        </mxCell>
        <mxCell id="EYmzBYj7U2H1WZuYqgdF-2" value="Start" style="whiteSpace=wrap;html=1;" parent="1" vertex="1">
          <mxGeometry x="370.5" y="20" width="66" height="30" as="geometry" />
        </mxCell>
        <mxCell id="o5NcTzppBcGUny0s-t3a-18" value="Admin" style="edgeStyle=orthogonalEdgeStyle;rounded=0;orthogonalLoop=1;jettySize=auto;html=1;exitX=0;exitY=0.5;exitDx=0;exitDy=0;entryX=0.5;entryY=0;entryDx=0;entryDy=0;" edge="1" parent="1" source="EYmzBYj7U2H1WZuYqgdF-4" target="EYmzBYj7U2H1WZuYqgdF-29">
          <mxGeometry x="0.6542" relative="1" as="geometry">
            <mxPoint as="offset" />
          </mxGeometry>
        </mxCell>
        <mxCell id="o5NcTzppBcGUny0s-t3a-19" value="User" style="edgeStyle=orthogonalEdgeStyle;rounded=0;orthogonalLoop=1;jettySize=auto;html=1;exitX=1;exitY=0.5;exitDx=0;exitDy=0;entryX=0.5;entryY=0;entryDx=0;entryDy=0;" edge="1" parent="1" source="EYmzBYj7U2H1WZuYqgdF-4" target="EYmzBYj7U2H1WZuYqgdF-35">
          <mxGeometry x="0.4332" relative="1" as="geometry">
            <mxPoint as="offset" />
          </mxGeometry>
        </mxCell>
        <mxCell id="EYmzBYj7U2H1WZuYqgdF-4" value="Login" style="rhombus;whiteSpace=wrap;html=1;" parent="1" vertex="1">
          <mxGeometry x="333.5" y="80" width="138" height="110" as="geometry" />
        </mxCell>
        <mxCell id="o5NcTzppBcGUny0s-t3a-21" style="edgeStyle=orthogonalEdgeStyle;rounded=0;orthogonalLoop=1;jettySize=auto;html=1;exitX=0.5;exitY=1;exitDx=0;exitDy=0;entryX=0.5;entryY=0;entryDx=0;entryDy=0;" edge="1" parent="1" source="EYmzBYj7U2H1WZuYqgdF-29" target="o5NcTzppBcGUny0s-t3a-20">
          <mxGeometry relative="1" as="geometry" />
        </mxCell>
        <mxCell id="EYmzBYj7U2H1WZuYqgdF-29" value="Registrasi" style="rounded=0;whiteSpace=wrap;html=1;" parent="1" vertex="1">
          <mxGeometry x="180" y="200" width="90" height="40" as="geometry" />
        </mxCell>
        <mxCell id="EYmzBYj7U2H1WZuYqgdF-44" style="edgeStyle=orthogonalEdgeStyle;rounded=0;orthogonalLoop=1;jettySize=auto;html=1;exitX=0.5;exitY=1;exitDx=0;exitDy=0;entryX=0.5;entryY=0;entryDx=0;entryDy=0;" parent="1" source="EYmzBYj7U2H1WZuYqgdF-35" target="EYmzBYj7U2H1WZuYqgdF-43" edge="1">
          <mxGeometry relative="1" as="geometry" />
        </mxCell>
        <mxCell id="o5NcTzppBcGUny0s-t3a-30" style="edgeStyle=orthogonalEdgeStyle;rounded=0;orthogonalLoop=1;jettySize=auto;html=1;exitX=1;exitY=0.5;exitDx=0;exitDy=0;entryX=0.5;entryY=0;entryDx=0;entryDy=0;" edge="1" parent="1" source="EYmzBYj7U2H1WZuYqgdF-35" target="o5NcTzppBcGUny0s-t3a-24">
          <mxGeometry relative="1" as="geometry" />
        </mxCell>
        <mxCell id="EYmzBYj7U2H1WZuYqgdF-35" value="Sacn QR Code" style="rounded=1;whiteSpace=wrap;html=1;" parent="1" vertex="1">
          <mxGeometry x="490" y="205" width="100" height="30" as="geometry" />
        </mxCell>
        <mxCell id="o5NcTzppBcGUny0s-t3a-25" value="Valid" style="edgeStyle=orthogonalEdgeStyle;rounded=0;orthogonalLoop=1;jettySize=auto;html=1;exitX=0;exitY=0.5;exitDx=0;exitDy=0;entryX=0.5;entryY=0;entryDx=0;entryDy=0;" edge="1" parent="1" source="EYmzBYj7U2H1WZuYqgdF-43" target="o5NcTzppBcGUny0s-t3a-22">
          <mxGeometry x="0.3514" relative="1" as="geometry">
            <mxPoint as="offset" />
          </mxGeometry>
        </mxCell>
        <mxCell id="o5NcTzppBcGUny0s-t3a-29" value="Tidak Valid" style="edgeStyle=orthogonalEdgeStyle;rounded=0;orthogonalLoop=1;jettySize=auto;html=1;exitX=0.5;exitY=1;exitDx=0;exitDy=0;entryX=0;entryY=0.5;entryDx=0;entryDy=0;" edge="1" parent="1" source="EYmzBYj7U2H1WZuYqgdF-43" target="o5NcTzppBcGUny0s-t3a-24">
          <mxGeometry x="-0.3266" relative="1" as="geometry">
            <mxPoint as="offset" />
          </mxGeometry>
        </mxCell>
        <mxCell id="EYmzBYj7U2H1WZuYqgdF-43" value="Validasi QR" style="rhombus;whiteSpace=wrap;html=1;" parent="1" vertex="1">
          <mxGeometry x="490" y="320" width="103" height="100" as="geometry" />
        </mxCell>
        <mxCell id="o5NcTzppBcGUny0s-t3a-20" value="Tampilkan QR" style="rounded=0;whiteSpace=wrap;html=1;" vertex="1" parent="1">
          <mxGeometry x="180" y="330" width="90" height="40" as="geometry" />
        </mxCell>
        <mxCell id="o5NcTzppBcGUny0s-t3a-28" style="edgeStyle=orthogonalEdgeStyle;rounded=0;orthogonalLoop=1;jettySize=auto;html=1;exitX=0.5;exitY=1;exitDx=0;exitDy=0;entryX=0.5;entryY=0;entryDx=0;entryDy=0;" edge="1" parent="1" source="o5NcTzppBcGUny0s-t3a-22" target="o5NcTzppBcGUny0s-t3a-27">
          <mxGeometry relative="1" as="geometry" />
        </mxCell>
        <mxCell id="o5NcTzppBcGUny0s-t3a-22" value="Absensi Berhasil" style="rounded=0;whiteSpace=wrap;html=1;" vertex="1" parent="1">
          <mxGeometry x="370" y="490" width="110" height="40" as="geometry" />
        </mxCell>
        <mxCell id="o5NcTzppBcGUny0s-t3a-24" value="Absensi Gagal" style="rounded=0;whiteSpace=wrap;html=1;" vertex="1" parent="1">
          <mxGeometry x="600" y="490" width="110" height="40" as="geometry" />
        </mxCell>
        <mxCell id="o5NcTzppBcGUny0s-t3a-32" style="edgeStyle=orthogonalEdgeStyle;rounded=0;orthogonalLoop=1;jettySize=auto;html=1;exitX=0.5;exitY=1;exitDx=0;exitDy=0;entryX=0.5;entryY=0;entryDx=0;entryDy=0;" edge="1" parent="1" source="o5NcTzppBcGUny0s-t3a-27" target="o5NcTzppBcGUny0s-t3a-31">
          <mxGeometry relative="1" as="geometry" />
        </mxCell>
        <mxCell id="o5NcTzppBcGUny0s-t3a-27" value="Simpan Data" style="rounded=0;whiteSpace=wrap;html=1;" vertex="1" parent="1">
          <mxGeometry x="370.5" y="600" width="110" height="40" as="geometry" />
        </mxCell>
        <mxCell id="o5NcTzppBcGUny0s-t3a-31" value="End" style="ellipse;whiteSpace=wrap;html=1;" vertex="1" parent="1">
          <mxGeometry x="381.5" y="700" width="90" height="50" as="geometry" />
        </mxCell>
      </root>
    </mxGraphModel>
  </diagram>
</mxfile>
